# This file uses centimeters as units for non-parametric coordinates.

mtllib uplegR.mtl
g default
v -0.349923 -1.710600 0.481909
v -0.179644 -1.471140 0.419720
v -0.276676 -1.301333 0.457017
v -0.485656 -1.599225 0.539362
v -0.255325 -1.818309 0.365380
v -0.119448 -1.629419 0.315006
v -0.216269 -1.905957 0.207516
v -0.105254 -1.752074 0.158818
v -0.238697 -1.960198 0.032348
v -0.139222 -1.820431 -0.025069
v -0.319197 -1.972774 -0.133454
v -0.216182 -1.824085 -0.208656
v -0.445512 -1.941771 -0.264650
v -0.324417 -1.762477 -0.363997
v -0.598411 -1.871910 -0.341264
v -0.447448 -1.644988 -0.467440
v -0.754618 -1.773825 -0.351634
v -0.566545 -1.489505 -0.503239
v -0.890353 -1.662451 -0.294182
v -0.663579 -1.319699 -0.465942
v -0.984950 -1.554741 -0.177653
v -0.723775 -1.161420 -0.361228
v -1.024007 -1.467093 -0.019788
v -0.737969 -1.038765 -0.205038
v -1.001578 -1.412854 0.155379
v -0.703999 -0.970408 -0.021153
v -0.921080 -1.400277 0.321181
v -0.627040 -0.966755 0.162436
v -0.794765 -1.431280 0.452377
v -0.518805 -1.028362 0.317776
v -0.641865 -1.501140 0.528991
v -0.395774 -1.145850 0.421219
v -0.190041 -1.341396 -0.319882
v -0.241452 -1.274278 -0.335335
v -0.283338 -1.200978 -0.319235
v -0.309323 -1.132654 -0.274034
v -0.315450 -1.079707 -0.206611
v -0.300786 -1.050199 -0.127233
v -0.267565 -1.048623 -0.047983
v -0.220844 -1.075217 0.019072
v -0.167735 -1.125933 0.063725
v -0.116324 -1.193050 0.079178
v -0.074438 -1.266350 0.063078
v -0.048452 -1.334675 0.017877
v -0.042326 -1.387622 -0.049546
v -0.056989 -1.417129 -0.128923
v -0.090211 -1.418706 -0.208173
v -0.136931 -1.392113 -0.275229
v -0.940913 -2.256561 0.129622
v -0.884707 -2.286830 0.104352
v -0.820894 -2.312161 0.104288
v -0.759185 -2.328696 0.129440
v -0.708978 -2.333918 0.175979
v -0.677915 -2.327031 0.236819
v -0.670726 -2.309085 0.302699
v -0.688504 -2.282812 0.363588
v -0.728544 -2.252211 0.410217
v -0.784749 -2.221941 0.435487
v -0.848563 -2.196610 0.435551
v -0.910271 -2.180075 0.410399
v -0.960478 -2.174852 0.363861
v -0.991541 -2.181738 0.303020
v -0.998731 -2.199685 0.237141
v -0.980952 -2.225959 0.176251
v -0.086510 -1.364582 0.276657
v -0.165325 -1.226657 0.306952
v -0.262062 -1.100366 0.277875
v -0.361995 -1.004935 0.193853
v -0.449908 -0.954894 0.067677
v -0.512420 -0.957862 -0.081443
v -0.540010 -1.013385 -0.230804
v -0.528482 -1.113012 -0.357670
v -0.479587 -1.241574 -0.442723
v -0.400772 -1.379501 -0.473018
v -0.304034 -1.505792 -0.443941
v -0.204102 -1.601222 -0.359919
v -0.116188 -1.651262 -0.233743
v -0.053678 -1.648296 -0.084623
v -0.026086 -1.592772 0.064739
v -0.037616 -1.493146 0.191604
v -0.823165 -2.050884 0.551657
v -0.703088 -2.098548 0.551536
v -0.631338 -1.958341 0.583740
v -0.779169 -1.899660 0.583889
v -0.597330 -2.155506 0.503986
v -0.501134 -2.028466 0.525199
v -0.521989 -2.213087 0.416247
v -0.408378 -2.099356 0.417180
v -0.488536 -2.262524 0.301675
v -0.367193 -2.160221 0.276124
v -0.502065 -2.296292 0.177711
v -0.383848 -2.201795 0.123508
v -0.560515 -2.309250 0.063231
v -0.455809 -2.217747 -0.017434
v -0.654988 -2.299424 -0.024338
v -0.572118 -2.205649 -0.125244
v -0.771100 -2.268310 -0.071665
v -0.715070 -2.167346 -0.183510
v -0.891175 -2.220647 -0.071545
v -0.862901 -2.108664 -0.183361
v -0.996935 -2.163689 -0.023994
v -0.993105 -2.038540 -0.124822
v -1.072274 -2.106107 0.063745
v -1.085861 -1.967650 -0.016800
v -1.105727 -2.056670 0.178318
v -1.127045 -1.906785 0.124254
v -1.092199 -2.022901 0.302280
v -1.110390 -1.865212 0.276870
v -1.033750 -2.009944 0.416761
v -1.038430 -1.849259 0.417811
v -0.939277 -2.019770 0.504329
v -0.922120 -1.861355 0.525622
vn 0.367453 -0.009200 0.929997
vn 0.367453 -0.009200 0.929997
vn 0.367453 -0.009200 0.929997
vn 0.367453 -0.009200 0.929997
vn 0.731336 -0.317771 0.603464
vn 0.789182 -0.257459 0.557590
vn 0.599553 -0.014205 0.800209
vn 0.496396 -0.119588 0.859819
vn 0.844450 -0.472965 0.251411
vn 0.868045 -0.442363 0.225417
vn 0.789182 -0.257459 0.557590
vn 0.731336 -0.317771 0.603464
vn 0.807725 -0.574777 -0.131192
vn 0.821541 -0.552777 -0.139673
vn 0.868045 -0.442363 0.225417
vn 0.844450 -0.472965 0.251411
vn 0.623357 -0.616491 -0.481005
vn 0.653835 -0.581420 -0.484201
vn 0.821541 -0.552777 -0.139673
vn 0.807725 -0.574777 -0.131192
vn 0.324068 -0.582156 -0.745704
vn 0.390784 -0.516086 -0.762196
vn 0.653835 -0.581420 -0.484201
vn 0.623357 -0.616491 -0.481005
vn -0.030750 -0.461789 -0.886457
vn 0.076587 -0.353692 -0.932221
vn 0.390784 -0.516086 -0.762196
vn 0.324068 -0.582156 -0.745704
vn -0.375745 -0.270748 -0.886291
vn -0.236128 -0.115637 -0.964817
vn 0.076587 -0.353692 -0.932221
vn -0.030750 -0.461789 -0.886457
vn -0.659012 -0.044530 -0.750813
vn -0.496992 0.156468 -0.853532
vn -0.236128 -0.115637 -0.964817
vn -0.375745 -0.270748 -0.886291
vn -0.845848 0.175943 -0.503572
vn -0.667753 0.414624 -0.618217
vn -0.496992 0.156468 -0.853532
vn -0.659012 -0.044530 -0.750813
vn -0.917375 0.354346 -0.181278
vn -0.728013 0.617387 -0.298043
vn -0.667753 0.414624 -0.618217
vn -0.845848 0.175943 -0.503572
vn -0.869141 0.463891 0.171461
vn -0.674273 0.736097 0.059296
vn -0.728013 0.617387 -0.298043
vn -0.917375 0.354346 -0.181278
vn -0.709578 0.489240 0.507093
vn -0.515909 0.755077 0.404594
vn -0.674273 0.736097 0.059296
vn -0.869141 0.463891 0.171461
vn -0.458640 0.427306 0.779140
vn -0.273001 0.670883 0.689482
vn -0.515909 0.755077 0.404594
vn -0.709578 0.489240 0.507093
vn -0.146706 0.288043 0.946313
vn 0.023024 0.494045 0.869132
vn -0.273001 0.670883 0.689482
vn -0.458640 0.427306 0.779140
vn 0.186965 0.094543 0.977807
vn 0.329780 0.251730 0.909878
vn 0.023024 0.494045 0.869132
vn -0.146706 0.288043 0.946313
vn 0.782988 0.521797 -0.338611
vn 0.782988 0.521797 -0.338611
vn 0.782988 0.521797 -0.338611
vn 0.782988 0.521797 -0.338611
vn 0.782988 0.521797 -0.338611
vn 0.782988 0.521797 -0.338611
vn 0.782988 0.521797 -0.338611
vn 0.782988 0.521797 -0.338611
vn 0.782988 0.521797 -0.338611
vn 0.782988 0.521797 -0.338611
vn 0.782988 0.521797 -0.338611
vn 0.782988 0.521797 -0.338611
vn 0.782988 0.521797 -0.338611
vn 0.782988 0.521797 -0.338611
vn 0.782988 0.521797 -0.338611
vn 0.782988 0.521797 -0.338611
vn -0.353771 -0.891942 0.281577
vn -0.353771 -0.891942 0.281577
vn -0.353771 -0.891942 0.281577
vn -0.353771 -0.891942 0.281577
vn -0.353771 -0.891942 0.281577
vn -0.353771 -0.891942 0.281577
vn -0.353771 -0.891942 0.281577
vn -0.353771 -0.891942 0.281577
vn -0.353771 -0.891942 0.281577
vn -0.353771 -0.891942 0.281577
vn -0.353771 -0.891942 0.281577
vn -0.353771 -0.891942 0.281577
vn -0.353771 -0.891942 0.281577
vn -0.353771 -0.891942 0.281577
vn -0.353771 -0.891942 0.281577
vn -0.353771 -0.891942 0.281577
vn 0.863276 0.216318 0.456028
vn 0.716283 0.473554 0.512529
vn 0.329780 0.251730 0.909878
vn 0.599553 -0.014205 0.800209
vn 0.716283 0.473554 0.512529
vn 0.535864 0.709093 0.458298
vn 0.023024 0.494045 0.869132
vn 0.329780 0.251730 0.909878
vn 0.535864 0.709093 0.458298
vn 0.349485 0.887075 0.301594
vn -0.273001 0.670883 0.689482
vn 0.023024 0.494045 0.869132
vn 0.349485 0.887075 0.301594
vn 0.185522 0.980403 0.066270
vn -0.515909 0.755077 0.404594
vn -0.273001 0.670883 0.689482
vn 0.185522 0.980403 0.066270
vn 0.068935 0.974869 -0.211845
vn -0.674273 0.736097 0.059296
vn -0.515909 0.755077 0.404594
vn 0.068935 0.974869 -0.211845
vn 0.017478 0.871315 -0.490413
vn -0.728013 0.617387 -0.298043
vn -0.674273 0.736097 0.059296
vn 0.017478 0.871315 -0.490413
vn 0.038978 0.685507 -0.727022
vn -0.667753 0.414624 -0.618217
vn -0.728013 0.617387 -0.298043
vn 0.038978 0.685507 -0.727022
vn 0.130171 0.445732 -0.885651
vn -0.496992 0.156468 -0.853532
vn -0.667753 0.414624 -0.618217
vn 0.130171 0.445732 -0.885651
vn 0.277163 0.188495 -0.942152
vn -0.236128 -0.115637 -0.964817
vn -0.496992 0.156468 -0.853532
vn 0.277163 0.188495 -0.942152
vn 0.457582 -0.047044 -0.887922
vn 0.076587 -0.353692 -0.932221
vn -0.236128 -0.115637 -0.964817
vn 0.457582 -0.047044 -0.887922
vn 0.643960 -0.225027 -0.731217
vn 0.390784 -0.516086 -0.762196
vn 0.076587 -0.353692 -0.932221
vn 0.643960 -0.225027 -0.731217
vn 0.807924 -0.318352 -0.495894
vn 0.653835 -0.581420 -0.484201
vn 0.390784 -0.516086 -0.762196
vn 0.807924 -0.318352 -0.495894
vn 0.924509 -0.312819 -0.217779
vn 0.821541 -0.552777 -0.139673
vn 0.653835 -0.581420 -0.484201
vn 0.924509 -0.312819 -0.217779
vn 0.975968 -0.209265 0.060789
vn 0.868045 -0.442363 0.225417
vn 0.821541 -0.552777 -0.139673
vn 0.975968 -0.209265 0.060789
vn 0.954464 -0.023456 0.297402
vn 0.789182 -0.257459 0.557590
vn 0.868045 -0.442363 0.225417
vn 0.954464 -0.023456 0.297402
vn 0.863276 0.216318 0.456028
vn 0.599553 -0.014205 0.800209
vn 0.789182 -0.257459 0.557590
vn -0.285205 -0.312031 0.906253
vn -0.004866 -0.423308 0.905973
vn 0.172529 -0.033422 0.984437
vn -0.177607 0.115038 0.977355
vn -0.004866 -0.423308 0.905973
vn 0.242039 -0.556285 0.794962
vn 0.485158 -0.207697 0.849402
vn 0.172529 -0.033422 0.984437
vn 0.242039 -0.556285 0.794962
vn 0.417932 -0.690719 0.590118
vn 0.710123 -0.380587 0.592350
vn 0.485158 -0.207697 0.849402
vn 0.417932 -0.690719 0.590118
vn 0.496032 -0.806141 0.322628
vn 0.811110 -0.526597 0.254550
vn 0.710123 -0.380587 0.592350
vn 0.496032 -0.806141 0.322628
vn 0.464446 -0.884978 0.033221
vn 0.772215 -0.625678 -0.110499
vn 0.811110 -0.526597 0.254550
vn 0.464446 -0.884978 0.033221
vn 0.327987 -0.915228 -0.234056
vn 0.599335 -0.664072 -0.446995
vn 0.772215 -0.625678 -0.110499
vn 0.327987 -0.915228 -0.234056
vn 0.107426 -0.892287 -0.438501
vn 0.318798 -0.634623 -0.704004
vn 0.599335 -0.664072 -0.446995
vn 0.107426 -0.892287 -0.438501
vn -0.163655 -0.819649 -0.548992
vn -0.025376 -0.539116 -0.841849
vn 0.318798 -0.634623 -0.704004
vn -0.163655 -0.819649 -0.548992
vn -0.443988 -0.708370 -0.548714
vn -0.377993 -0.390799 -0.839284
vn -0.025376 -0.539116 -0.841849
vn -0.443988 -0.708370 -0.548714
vn -0.690899 -0.575394 -0.437699
vn -0.683398 -0.213302 -0.698191
vn -0.377993 -0.390799 -0.839284
vn -0.690899 -0.575394 -0.437699
vn -0.866793 -0.440962 -0.232856
vn -0.896054 -0.035554 -0.442519
vn -0.683398 -0.213302 -0.698191
vn -0.866793 -0.440962 -0.232856
vn -0.944892 -0.325546 0.034633
vn -0.987062 0.114393 -0.112350
vn -0.896054 -0.035554 -0.442519
vn -0.944892 -0.325546 0.034633
vn -0.913309 -0.246706 0.324042
vn -0.945962 0.214033 0.243611
vn -0.987062 0.114393 -0.112350
vn -0.913309 -0.246706 0.324042
vn -0.776847 -0.216454 0.591317
vn -0.779731 0.248985 0.574479
vn -0.945962 0.214033 0.243611
vn -0.776847 -0.216454 0.591317
vn -0.556288 -0.239391 0.795761
vn -0.511226 0.214263 0.832310
vn -0.779731 0.248985 0.574479
vn -0.556288 -0.239391 0.795761
vn -0.285205 -0.312031 0.906253
vn -0.177607 0.115038 0.977355
vn -0.511226 0.214263 0.832310
vn 0.958711 -0.040217 -0.281524
vn 0.996332 0.035488 -0.077870
vn 0.975968 -0.209265 0.060789
vn 0.924509 -0.312819 -0.217779
vn 0.996332 0.035488 -0.077870
vn 0.980612 0.171330 0.095115
vn 0.954464 -0.023456 0.297402
vn 0.975968 -0.209265 0.060789
vn 0.980612 0.171330 0.095115
vn 0.913945 0.346625 0.211084
vn 0.863276 0.216318 0.456028
vn 0.954464 -0.023456 0.297402
vn 0.913945 0.346625 0.211084
vn 0.806482 0.534685 0.252388
vn 0.716283 0.473554 0.512529
vn 0.863276 0.216318 0.456028
vn 0.806482 0.534685 0.252388
vn 0.674582 0.706881 0.212741
vn 0.535864 0.709093 0.458298
vn 0.716283 0.473554 0.512529
vn 0.674582 0.706881 0.212741
vn 0.538328 0.836997 0.098179
vn 0.349485 0.887075 0.301594
vn 0.535864 0.709093 0.458298
vn 0.538328 0.836997 0.098179
vn 0.418457 0.905228 -0.073861
vn 0.185522 0.980403 0.066270
vn 0.349485 0.887075 0.301594
vn 0.418457 0.905228 -0.073861
vn 0.333222 0.901184 -0.277185
vn 0.068935 0.974869 -0.211845
vn 0.185522 0.980403 0.066270
vn 0.333222 0.901184 -0.277185
vn 0.295601 0.825477 -0.480841
vn 0.017478 0.871315 -0.490413
vn 0.068935 0.974869 -0.211845
vn 0.295601 0.825477 -0.480841
vn 0.311321 0.689637 -0.653820
vn 0.038978 0.685507 -0.727022
vn 0.017478 0.871315 -0.490413
vn 0.311321 0.689637 -0.653820
vn 0.377987 0.514342 -0.769791
vn 0.130171 0.445732 -0.885651
vn 0.038978 0.685507 -0.727022
vn 0.377987 0.514342 -0.769791
vn 0.485450 0.326284 -0.811097
vn 0.277163 0.188495 -0.942152
vn 0.130171 0.445732 -0.885651
vn 0.485450 0.326284 -0.811097
vn 0.617350 0.154088 -0.771451
vn 0.457582 -0.047044 -0.887922
vn 0.277163 0.188495 -0.942152
vn 0.617350 0.154088 -0.771451
vn 0.753610 0.023967 -0.656885
vn 0.643960 -0.225027 -0.731217
vn 0.457582 -0.047044 -0.887922
vn 0.753610 0.023967 -0.656885
vn 0.873480 -0.044263 -0.484844
vn 0.807924 -0.318352 -0.495894
vn 0.643960 -0.225027 -0.731217
vn 0.873480 -0.044263 -0.484844
vn 0.958711 -0.040217 -0.281524
vn 0.924509 -0.312819 -0.217779
vn 0.807924 -0.318352 -0.495894
vn -0.795488 -0.502537 0.338609
vn -0.695723 -0.480423 0.534007
vn -0.776847 -0.216454 0.591317
vn -0.913309 -0.246706 0.324042
vn -0.695723 -0.480423 0.534007
vn -0.534476 -0.497191 0.683474
vn -0.556288 -0.239391 0.795761
vn -0.776847 -0.216454 0.591317
vn -0.534476 -0.497191 0.683474
vn -0.336295 -0.550297 0.764251
vn -0.285205 -0.312031 0.906253
vn -0.556288 -0.239391 0.795761
vn -0.336295 -0.550297 0.764251
vn -0.131344 -0.631651 0.764046
vn -0.004866 -0.423308 0.905973
vn -0.285205 -0.312031 0.906253
vn -0.131344 -0.631651 0.764046
vn 0.049165 -0.728866 0.682889
vn 0.242039 -0.556285 0.794962
vn -0.004866 -0.423308 0.905973
vn 0.049165 -0.728866 0.682889
vn 0.177755 -0.827149 0.533130
vn 0.417932 -0.690719 0.590118
vn 0.242039 -0.556285 0.794962
vn 0.177755 -0.827149 0.533130
vn 0.234852 -0.911531 0.337572
vn 0.496032 -0.806141 0.322628
vn 0.417932 -0.690719 0.590118
vn 0.234852 -0.911531 0.337572
vn 0.211764 -0.969165 0.125999
vn 0.464446 -0.884978 0.033221
vn 0.496032 -0.806141 0.322628
vn 0.211764 -0.969165 0.125999
vn 0.112001 -0.991282 -0.069401
vn 0.327987 -0.915228 -0.234056
vn 0.464446 -0.884978 0.033221
vn 0.112001 -0.991282 -0.069401
vn -0.049249 -0.974510 -0.218872
vn 0.107426 -0.892287 -0.438501
vn 0.327987 -0.915228 -0.234056
vn -0.049249 -0.974510 -0.218872
vn -0.247430 -0.921405 -0.299651
vn -0.163655 -0.819649 -0.548992
vn 0.107426 -0.892287 -0.438501
vn -0.247430 -0.921405 -0.299651
vn -0.452374 -0.840053 -0.299448
vn -0.443988 -0.708370 -0.548714
vn -0.163655 -0.819649 -0.548992
vn -0.452374 -0.840053 -0.299448
vn -0.632889 -0.742834 -0.218288
vn -0.690899 -0.575394 -0.437699
vn -0.443988 -0.708370 -0.548714
vn -0.632889 -0.742834 -0.218288
vn -0.761485 -0.644549 -0.068532
vn -0.866793 -0.440962 -0.232856
vn -0.690899 -0.575394 -0.437699
vn -0.761485 -0.644549 -0.068532
vn -0.818580 -0.560172 0.127024
vn -0.944892 -0.325546 0.034633
vn -0.866793 -0.440962 -0.232856
vn -0.818580 -0.560172 0.127024
vn -0.795488 -0.502537 0.338609
vn -0.913309 -0.246706 0.324042
vn -0.944892 -0.325546 0.034633
vn -0.987062 0.114393 -0.112350
vn -0.945962 0.214033 0.243611
vn -0.869141 0.463891 0.171461
vn -0.917375 0.354346 -0.181278
vn -0.896054 -0.035554 -0.442519
vn -0.987062 0.114393 -0.112350
vn -0.917375 0.354346 -0.181278
vn -0.845848 0.175943 -0.503572
vn -0.683398 -0.213302 -0.698191
vn -0.896054 -0.035554 -0.442519
vn -0.845848 0.175943 -0.503572
vn -0.659012 -0.044530 -0.750813
vn -0.377993 -0.390799 -0.839284
vn -0.683398 -0.213302 -0.698191
vn -0.659012 -0.044530 -0.750813
vn -0.375745 -0.270748 -0.886291
vn -0.025376 -0.539116 -0.841849
vn -0.377993 -0.390799 -0.839284
vn -0.375745 -0.270748 -0.886291
vn -0.030750 -0.461789 -0.886457
vn 0.318798 -0.634623 -0.704004
vn -0.025376 -0.539116 -0.841849
vn -0.030750 -0.461789 -0.886457
vn 0.324068 -0.582156 -0.745704
vn 0.599335 -0.664072 -0.446995
vn 0.318798 -0.634623 -0.704004
vn 0.324068 -0.582156 -0.745704
vn 0.623357 -0.616491 -0.481005
vn 0.772215 -0.625678 -0.110499
vn 0.599335 -0.664072 -0.446995
vn 0.623357 -0.616491 -0.481005
vn 0.807725 -0.574777 -0.131192
vn 0.811110 -0.526597 0.254550
vn 0.772215 -0.625678 -0.110499
vn 0.807725 -0.574777 -0.131192
vn 0.844450 -0.472965 0.251411
vn 0.710123 -0.380587 0.592350
vn 0.811110 -0.526597 0.254550
vn 0.844450 -0.472965 0.251411
vn 0.731336 -0.317771 0.603464
vn 0.485158 -0.207697 0.849402
vn 0.710123 -0.380587 0.592350
vn 0.731336 -0.317771 0.603464
vn 0.496396 -0.119588 0.859819
vn 0.172529 -0.033422 0.984437
vn 0.485158 -0.207697 0.849402
vn 0.496396 -0.119588 0.859819
vn 0.186965 0.094543 0.977807
vn -0.177607 0.115038 0.977355
vn 0.172529 -0.033422 0.984437
vn 0.186965 0.094543 0.977807
vn -0.146706 0.288043 0.946313
vn -0.511226 0.214263 0.832310
vn -0.177607 0.115038 0.977355
vn -0.146706 0.288043 0.946313
vn -0.458640 0.427306 0.779140
vn -0.779731 0.248985 0.574479
vn -0.511226 0.214263 0.832310
vn -0.458640 0.427306 0.779140
vn -0.709578 0.489240 0.507093
vn -0.945962 0.214033 0.243611
vn -0.779731 0.248985 0.574479
vn -0.709578 0.489240 0.507093
vn -0.869141 0.463891 0.171461
s off
g body:uplegR
usemtl body:initialShadingGroup
f 1//1 2//2 3//3 4//4
f 5//5 6//6 2//7 1//8
f 7//9 8//10 6//11 5//12
f 9//13 10//14 8//15 7//16
f 11//17 12//18 10//19 9//20
f 13//21 14//22 12//23 11//24
f 15//25 16//26 14//27 13//28
f 17//29 18//30 16//31 15//32
f 19//33 20//34 18//35 17//36
f 21//37 22//38 20//39 19//40
f 23//41 24//42 22//43 21//44
f 25//45 26//46 24//47 23//48
f 27//49 28//50 26//51 25//52
f 29//53 30//54 28//55 27//56
f 31//57 32//58 30//59 29//60
f 4//61 3//62 32//63 31//64
f 33//65 34//66 35//67 36//68 37//69 38//70 39//71 40//72 41//73 42//74 43//75 44//76 45//77 46//78 47//79 48//80
f 49//81 50//82 51//83 52//84 53//85 54//86 55//87 56//88 57//89 58//90 59//91 60//92 61//93 62//94 63//95 64//96
f 65//97 66//98 3//99 2//100
f 66//101 67//102 32//103 3//104
f 67//105 68//106 30//107 32//108
f 68//109 69//110 28//111 30//112
f 69//113 70//114 26//115 28//116
f 70//117 71//118 24//119 26//120
f 71//121 72//122 22//123 24//124
f 72//125 73//126 20//127 22//128
f 73//129 74//130 18//131 20//132
f 74//133 75//134 16//135 18//136
f 75//137 76//138 14//139 16//140
f 76//141 77//142 12//143 14//144
f 77//145 78//146 10//147 12//148
f 78//149 79//150 8//151 10//152
f 79//153 80//154 6//155 8//156
f 80//157 65//158 2//159 6//160
f 81//161 82//162 83//163 84//164
f 82//165 85//166 86//167 83//168
f 85//169 87//170 88//171 86//172
f 87//173 89//174 90//175 88//176
f 89//177 91//178 92//179 90//180
f 91//181 93//182 94//183 92//184
f 93//185 95//186 96//187 94//188
f 95//189 97//190 98//191 96//192
f 97//193 99//194 100//195 98//196
f 99//197 101//198 102//199 100//200
f 101//201 103//202 104//203 102//204
f 103//205 105//206 106//207 104//208
f 105//209 107//210 108//211 106//212
f 107//213 109//214 110//215 108//216
f 109//217 111//218 112//219 110//220
f 111//221 81//222 84//223 112//224
f 46//225 45//226 79//227 78//228
f 45//229 44//230 80//231 79//232
f 44//233 43//234 65//235 80//236
f 43//237 42//238 66//239 65//240
f 42//241 41//242 67//243 66//244
f 41//245 40//246 68//247 67//248
f 40//249 39//250 69//251 68//252
f 39//253 38//254 70//255 69//256
f 38//257 37//258 71//259 70//260
f 37//261 36//262 72//263 71//264
f 36//265 35//266 73//267 72//268
f 35//269 34//270 74//271 73//272
f 34//273 33//274 75//275 74//276
f 33//277 48//278 76//279 75//280
f 48//281 47//282 77//283 76//284
f 47//285 46//286 78//287 77//288
f 62//289 61//290 109//291 107//292
f 61//293 60//294 111//295 109//296
f 60//297 59//298 81//299 111//300
f 59//301 58//302 82//303 81//304
f 58//305 57//306 85//307 82//308
f 57//309 56//310 87//311 85//312
f 56//313 55//314 89//315 87//316
f 55//317 54//318 91//319 89//320
f 54//321 53//322 93//323 91//324
f 53//325 52//326 95//327 93//328
f 52//329 51//330 97//331 95//332
f 51//333 50//334 99//335 97//336
f 50//337 49//338 101//339 99//340
f 49//341 64//342 103//343 101//344
f 64//345 63//346 105//347 103//348
f 63//349 62//350 107//351 105//352
f 106//353 108//354 25//355 23//356
f 104//357 106//358 23//359 21//360
f 102//361 104//362 21//363 19//364
f 100//365 102//366 19//367 17//368
f 98//369 100//370 17//371 15//372
f 96//373 98//374 15//375 13//376
f 94//377 96//378 13//379 11//380
f 92//381 94//382 11//383 9//384
f 90//385 92//386 9//387 7//388
f 88//389 90//390 7//391 5//392
f 86//393 88//394 5//395 1//396
f 83//397 86//398 1//399 4//400
f 84//401 83//402 4//403 31//404
f 112//405 84//406 31//407 29//408
f 110//409 112//410 29//411 27//412
f 108//413 110//414 27//415 25//416
